<?xml version="1.0" encoding="UTF-8" standalone="no"?>
<!-- Created with Inkscape (http://www.inkscape.org/) -->

<svg
   xmlns:dc="http://purl.org/dc/elements/1.1/"
   xmlns:cc="http://creativecommons.org/ns#"
   xmlns:rdf="http://www.w3.org/1999/02/22-rdf-syntax-ns#"
   xmlns:svg="http://www.w3.org/2000/svg"
   xmlns="http://www.w3.org/2000/svg"
   xmlns:sodipodi="http://sodipodi.sourceforge.net/DTD/sodipodi-0.dtd"
   xmlns:inkscape="http://www.inkscape.org/namespaces/inkscape"
   width="214.28572"
   height="407.3251"
   id="svg2"
   version="1.1"
   inkscape:version="0.48.5 r10040"
   sodipodi:docname="New document 1">
  <defs
     id="defs4" />
  <sodipodi:namedview
     id="base"
     pagecolor="#ffffff"
     bordercolor="#666666"
     borderopacity="1.0"
     inkscape:pageopacity="0.0"
     inkscape:pageshadow="2"
     inkscape:zoom="0.7"
     inkscape:cx="141.04379"
     inkscape:cy="255.14967"
     inkscape:document-units="px"
     inkscape:current-layer="layer1"
     showgrid="false"
     inkscape:window-width="798"
     inkscape:window-height="657"
     inkscape:window-x="0"
     inkscape:window-y="27"
     inkscape:window-maximized="0"
     fit-margin-top="0"
     fit-margin-left="0"
     fit-margin-right="0"
     fit-margin-bottom="0" />
  <metadata
     id="metadata7">
    <rdf:RDF>
      <cc:Work
         rdf:about="">
        <dc:format>image/svg+xml</dc:format>
        <dc:type
           rdf:resource="http://purl.org/dc/dcmitype/StillImage" />
        <dc:title></dc:title>
      </cc:Work>
    </rdf:RDF>
  </metadata>
  <g
     inkscape:label="Layer 1"
     inkscape:groupmode="layer"
     id="layer1"
     transform="translate(-218.57143,-241.46562)">
    <path
       style="fill:#000000"
       d="m 396.76745,306.06732 c -0.70192,-1.69842 -3.4489,-1.48001 -8.20186,1.92132 -2.46383,1.76317 -7.37954,4.4313 -10.93416,5.92868 -11.78135,4.9629 -26.1599,2.47154 -28.78199,-4.99093 -0.48672,-1.3852 0.42079,-5.03581 2.40391,-9.65536 1.7538,-4.08537 3.06687,-8.65261 2.92981,-10.13826 -0.36468,-3.9532 -4.28371,-8.77671 -9.80135,-12.05764 -7.81238,-4.64546 -8.10036,-5.17491 -8.40135,-15.33189 -0.30028,-10.13279 -1.50071,-13.08295 -7.11928,-17.33914 -5.12369,-3.8813 -13.20185,-3.91663 -25.51087,-0.11193 -13.87302,4.28814 -15.48173,6.75464 -12.56109,19.02082 1.67269,7.02501 0.71557,10.30641 -5.18554,17.95292 -4.85355,6.2891 -5.4936,11.54641 -2.36231,19.57763 2.99506,7.68177 3.05628,11.80971 0.22261,16.84762 -2.79602,4.97093 -4.24799,5.51318 -12.87051,4.75417 -7.89168,-0.69468 -14.78502,-3.22944 -19.87414,-7.25969 -4.00545,-3.17206 -13.16134,-5.67673 -16.45963,-4.51781 -3.11495,1.0945 -1.50793,4.97609 4.53341,10.8282 10.27275,9.95098 18.46016,12.42893 37.21508,11.2691 5.19901,-0.32153 10.14055,-0.36303 10.96931,-0.0783 4.23339,1.45456 6.62021,19.95242 4.25648,32.8529 -0.0672,0.36679 -0.1765,0.76898 -0.25815,1.15065 l 63.48272,-1.73659 c -0.54793,-3.74812 -1.62498,-9.74099 -2.50949,-14.02357 -2.74039,-13.26837 -1.2339,-21.12949 4.43005,-23.11963 1.45858,-0.5125 6.46151,-0.70196 11.14143,-0.43686 10.11855,0.57316 14.41064,-1.01703 21.61498,-7.95921 6.03764,-5.81794 8.53437,-11.16352 7.63193,-13.34722 z M 318.5118,243.70146 c 0.0969,0.27585 -0.0996,3.05731 -0.42462,6.14445 -0.51581,4.89888 0.0632,7.85872 4.54,23.47885 2.82116,9.84337 5.36681,20.64167 5.64523,23.98483 0.51645,6.20122 -0.91201,11.38352 -3.37999,12.2507 -2.60665,0.91589 -8.8853,-1.18163 -11.51682,-3.8366 -5.01001,-5.05468 -6.43499,-12.87153 -5.43256,-29.78982 0.31192,-5.26457 0.43477,-14.13169 0.26501,-19.70191 -0.16977,-5.57022 -0.11756,-10.5875 0.12651,-11.14064 0.45123,-1.02261 9.85476,-2.30764 10.17724,-1.38986 z"
       id="path2996"
       inkscape:connector-curvature="0" />
    <path
       sodipodi:type="arc"
       style="fill:#000000;fill-opacity:1;stroke:none"
       id="path3001"
       sodipodi:cx="237.85715"
       sodipodi:cy="515.93359"
       sodipodi:rx="125"
       sodipodi:ry="125"
       d="m 362.85715,515.93359 c 0,69.0356 -55.96441,125 -125,125 -69.0356,0 -125,-55.9644 -125,-125 0,-69.03559 55.9644,-125 125,-125 69.03559,0 125,55.96441 125,125 z"
       transform="matrix(0.85714286,0,0,1,121.83673,-34.285715)" />
    <path
       style="fill:#ffffff;fill-opacity:1;stroke:none"
       d="m 431.29018,478.89286 c -5.46701,0.90158 -11.74107,5.69643 -18.4375,17.75 -21.42857,38.57143 -38.5625,35.71875 -38.5625,35.71875 l 2.84375,-22.84375 c 0,0 -21.41965,10 -38.5625,10 -17.14286,0 -51.41965,38.54464 -58.5625,15.6875 -7.14286,-22.85715 -38.59375,-21.40625 -38.59375,-21.40625 0,0 -8.88257,2.07413 -18.40625,5.1875 8.46236,28.51676 25.51978,52.35527 47.5625,67.28125 3.76961,-0.28517 7.85821,-1.51044 12.28125,-3.90625 34.28571,-18.57143 67.14732,-44.27678 85.71875,-28.5625 6.69182,5.66231 16.71389,12.60091 26.875,17.71875 21.91296,-22.72888 35.76682,-55.78171 35.96875,-92.625 -0.0414,0.006 -0.0835,-0.007 -0.125,0 z"
       id="path3001-2"
       inkscape:connector-curvature="0" />
    <path
       style="fill:#ffffff;fill-opacity:1;stroke:none"
       d="m 401.51478,456.04919 c -4.01232,-0.66168 -8.61695,-4.1807 -13.53156,-13.027 -15.72675,-28.30815 -28.3016,-26.21453 -28.3016,-26.21453 l 2.08707,16.76538 c 0,0 -15.7202,-7.33915 -28.3016,-7.33915 -12.58141,0 -37.73766,-28.2885 -42.97991,-11.5133 -5.24225,16.77521 -28.32453,15.71037 -28.32453,15.71037 0,0 -6.51906,-1.52223 -13.50863,-3.80718 6.21065,-20.92888 18.72935,-38.42433 34.90684,-49.37873 2.76657,0.20929 5.76726,1.10853 9.01339,2.86686 25.16281,13.62985 49.28044,32.4954 62.91029,20.96245 4.91123,-4.15566 12.26658,-9.248 19.72397,-13.00406 16.08226,16.68107 26.24981,40.93904 26.39801,67.97889 -0.0304,-0.004 -0.0613,0.005 -0.0917,0 z"
       id="path3001-2-0"
       inkscape:connector-curvature="0" />
    <path
       style="fill:#000000;stroke:#000000;stroke-width:0.81180364px;stroke-linecap:butt;stroke-linejoin:miter;stroke-opacity:1"
       d="M 347.14286,582.36218 360,627.55247 l -11.42857,9.41465 -15.71429,-48.01469 z"
       id="path3086"
       inkscape:connector-curvature="0" />
    <path
       sodipodi:type="arc"
       style="fill:#000000;fill-opacity:1;stroke:none"
       id="path3088"
       sodipodi:cx="337.85715"
       sodipodi:cy="665.2193"
       sodipodi:rx="13.571428"
       sodipodi:ry="14.285714"
       d="m 351.42858,665.2193 c 0,7.88978 -6.07614,14.28571 -13.57143,14.28571 -7.4953,0 -13.57143,-6.39593 -13.57143,-14.28571 0,-7.88978 6.07613,-14.28571 13.57143,-14.28571 7.49529,0 13.57143,6.39593 13.57143,14.28571 z"
       transform="translate(17.857143,-30.714286)" />
    <path
       sodipodi:type="arc"
       style="fill:#ffffff;fill-opacity:1;stroke:none"
       id="path3088-5-9"
       sodipodi:cx="337.85715"
       sodipodi:cy="665.2193"
       sodipodi:rx="13.571428"
       sodipodi:ry="14.285714"
       d="m 351.42858,665.2193 c 0,7.88978 -6.07614,14.28571 -13.57143,14.28571 -7.4953,0 -13.57143,-6.39593 -13.57143,-14.28571 0,-7.88978 6.07613,-14.28571 13.57143,-14.28571 7.49529,0 13.57143,6.39593 13.57143,14.28571 z"
       transform="translate(-45.000004,-362.85712)" />
    <path
       sodipodi:type="arc"
       style="fill:#000000;fill-opacity:1;stroke:none"
       id="path3088-5-9-9"
       sodipodi:cx="337.85715"
       sodipodi:cy="665.2193"
       sodipodi:rx="13.571428"
       sodipodi:ry="14.285714"
       d="m 351.42858,665.2193 c 0,7.88978 -6.07614,14.28571 -13.57143,14.28571 -7.4953,0 -13.57143,-6.39593 -13.57143,-14.28571 0,-7.88978 6.07613,-14.28571 13.57143,-14.28571 7.49529,0 13.57143,6.39593 13.57143,14.28571 z"
       transform="matrix(0.44605262,0,0,0.44605262,139.28008,3.1957557)" />
    <path
       sodipodi:type="arc"
       style="fill:#ffffff;fill-opacity:1;stroke:none"
       id="path3088-5-9-4"
       sodipodi:cx="337.85715"
       sodipodi:cy="665.2193"
       sodipodi:rx="13.571428"
       sodipodi:ry="14.285714"
       d="m 351.42858,665.2193 c 0,7.88978 -6.07614,14.28571 -13.57143,14.28571 -7.4953,0 -13.57143,-6.39593 -13.57143,-14.28571 0,-7.88978 6.07613,-14.28571 13.57143,-14.28571 7.49529,0 13.57143,6.39593 13.57143,14.28571 z"
       transform="translate(8.5714243,-363.92855)" />
    <path
       sodipodi:type="arc"
       style="fill:#000000;fill-opacity:1;stroke:none"
       id="path3088-5-9-9-2"
       sodipodi:cx="337.85715"
       sodipodi:cy="665.2193"
       sodipodi:rx="13.571428"
       sodipodi:ry="14.285714"
       d="m 351.42858,665.2193 c 0,7.88978 -6.07614,14.28571 -13.57143,14.28571 -7.4953,0 -13.57143,-6.39593 -13.57143,-14.28571 0,-7.88978 6.07613,-14.28571 13.57143,-14.28571 7.49529,0 13.57143,6.39593 13.57143,14.28571 z"
       transform="matrix(0.44605262,0,0,0.44605262,198.92294,0.69576187)" />
  </g>
</svg>
